<?xml version="1.0" encoding="utf-8"?>
<!-- Generator: Adobe Illustrator 24.0.0, SVG Export Plug-In . SVG Version: 6.00 Build 0)  -->
<svg version="1.1" id="Layer_1" xmlns="http://www.w3.org/2000/svg" xmlns:xlink="http://www.w3.org/1999/xlink" x="0px" y="0px"
	 viewBox="0 0 500 500" style="enable-background:new 0 0 500 500;" xml:space="preserve">
<style type="text/css">
	.st0{fill:#331F7E;}
	.st1{fill:#FFFFFF;}
	.st2{fill:none;stroke:#331F7E;stroke-width:9;stroke-miterlimit:10;}
	.st3{fill:#2575BE;}
	.st4{fill:none;stroke:#2575BE;stroke-width:3;stroke-miterlimit:10;}
	.st5{fill:url(#SVGID_1_);}
	.st6{fill:#164589;}
	.st7{fill:#213A8A;}
	.st8{fill:url(#SVGID_2_);}
	.st9{fill:none;stroke:#FFFFFF;stroke-width:6;stroke-miterlimit:10;}
	.st10{fill:url(#SVGID_3_);}
	.st11{fill:none;}
	.st12{fill:url(#SVGID_4_);}
	.st13{fill:url(#SVGID_5_);}
	.st14{fill:url(#SVGID_6_);}
	.st15{fill:url(#SVGID_7_);}
	.st16{fill:url(#SVGID_8_);}
	.st17{fill:url(#SVGID_9_);}
	.st18{fill:url(#SVGID_10_);}
	.st19{fill:url(#SVGID_11_);}
	.st20{fill:url(#SVGID_12_);}
	.st21{fill:url(#SVGID_13_);}
	.st22{fill:url(#SVGID_14_);}
</style>
<g>
	<path class="st11" d="M310.1,182.87c-12.95,1.77-27.83,6.65-44.21,16.82c-0.62,0.38-1.25,0.78-1.88,1.18
		c0.63-0.4,1.25-0.8,1.88-1.18C282.28,189.53,297.16,184.64,310.1,182.87z"/>
	<path class="st11" d="M273.93,258.89c-1.02,1.19-2.03,2.41-3.03,3.67C271.89,261.3,272.9,260.08,273.93,258.89z"/>
	<path class="st11" d="M257.37,205.38c-0.96,0.69-1.93,1.4-2.91,2.14c-0.21,0.15-0.43,0.31-0.64,0.47c0.21-0.16,0.43-0.32,0.64-0.47
		C255.44,206.78,256.4,206.07,257.37,205.38z"/>
	<path class="st11" d="M257.37,205.38c1.28-0.92,2.55-1.8,3.82-2.65C259.92,203.58,258.65,204.46,257.37,205.38z"/>
	<path class="st11" d="M331.22,182.6c5.58,0.64,10.54,1.81,14.81,3.17C341.76,184.41,336.81,183.25,331.22,182.6z"/>
	<path class="st11" d="M266.97,267.67c-1.77,2.45-3.48,5.01-5.12,7.67C263.49,272.68,265.21,270.12,266.97,267.67z"/>
	<path class="st11" d="M326.92,182.22c1.47,0.09,2.91,0.22,4.3,0.38C329.83,182.44,328.39,182.32,326.92,182.22z"/>
	<path class="st11" d="M306,212.51c-5.6,7.76-9.53,16.75-11.37,26.51l0,0c-0.81,4.12-1.22,8.41-1.22,12.75c0,0.19,0,0.39,0.03,0.58
		c0.03,3.51,0.32,6.96,0.87,10.32c0.39,2.44,0.93,4.82,1.57,7.16c7.89,28.63,34.1,49.64,65.23,49.64c37.39,0,67.7-30.31,67.7-67.7
		s-30.31-67.7-67.7-67.7c-5.19,0-10.24,0.58-15.07,1.71C329.6,189.48,315.43,199.21,306,212.51z"/>
	<linearGradient id="SVGID_1_" gradientUnits="userSpaceOnUse" x1="-2.752" y1="242.223" x2="371.0103" y2="242.223">
		<stop  offset="6.490977e-08" style="stop-color:#34217D"/>
		<stop  offset="0.2682" style="stop-color:#34247F"/>
		<stop  offset="0.4316" style="stop-color:#322C85"/>
		<stop  offset="0.567" style="stop-color:#303A90"/>
		<stop  offset="0.6871" style="stop-color:#2C4F9F"/>
		<stop  offset="0.797" style="stop-color:#2869B3"/>
		<stop  offset="0.8985" style="stop-color:#2289CB"/>
		<stop  offset="0.9936" style="stop-color:#1BAFE7"/>
		<stop  offset="1" style="stop-color:#1BB2E9"/>
	</linearGradient>
	<path class="st5" d="M261.85,275.35c1.64-2.67,3.36-5.22,5.12-7.67c1.28-1.77,2.59-3.46,3.92-5.12c1-1.25,2.01-2.48,3.03-3.67
		c1.36-1.59,2.74-3.14,4.12-4.62c1.89-2.02,3.79-3.93,5.67-5.73c1.88-1.8,3.75-3.5,5.57-5.08c1.83-1.59,3.62-3.07,5.34-4.44l0,0l0,0
		c1.84-9.76,5.77-18.75,11.37-26.51c9.44-13.3,23.61-23.03,40.04-26.73c-4.27-1.36-9.23-2.53-14.81-3.17
		c-1.4-0.16-2.83-0.29-4.3-0.38c-1.47-0.09-2.98-0.14-4.53-0.15c-1.55-0.01-3.13,0.02-4.75,0.1c-2.43,0.12-4.94,0.35-7.53,0.7
		c-12.95,1.77-27.83,6.65-44.21,16.82c-0.62,0.38-1.25,0.78-1.88,1.18c-0.94,0.6-1.88,1.22-2.83,1.86
		c-1.26,0.85-2.53,1.72-3.82,2.65c-0.96,0.69-1.93,1.4-2.91,2.14c-0.21,0.15-0.43,0.31-0.64,0.47c-0.64,0.47-1.29,0.96-1.94,1.47
		c-1.29,0.99-2.58,2.01-3.88,3.07c-3.9,3.17-7.86,6.64-11.9,10.46c-0.97,2-1.9,4.06-2.87,6.18c-0.81,1.84-1.84,4.06-3.09,6.64
		c-4.38,9.36-9.54,18.54-15.3,27.36l32.85,39.22c1.9-3.39,3.64-6.87,5.16-10.44c0.1,0.23,0.16,0.48,0.26,0.71
		c1.24-3.1,2.61-6.09,4.07-8.97C258.65,280.79,260.21,278.01,261.85,275.35z"/>
	<linearGradient id="SVGID_2_" gradientUnits="userSpaceOnUse" x1="-2.752" y1="251.981" x2="371.0103" y2="251.981">
		<stop  offset="6.490977e-08" style="stop-color:#34217D"/>
		<stop  offset="0.2682" style="stop-color:#34247F"/>
		<stop  offset="0.4316" style="stop-color:#322C85"/>
		<stop  offset="0.567" style="stop-color:#303A90"/>
		<stop  offset="0.6871" style="stop-color:#2C4F9F"/>
		<stop  offset="0.797" style="stop-color:#2869B3"/>
		<stop  offset="0.8985" style="stop-color:#2289CB"/>
		<stop  offset="0.9936" style="stop-color:#1BAFE7"/>
		<stop  offset="1" style="stop-color:#1BB2E9"/>
	</linearGradient>
	<path class="st8" d="M187.69,297.44c-6.57,6.88-13.51,14.87-22.35,18.51c-9.95,4.09-19.71,7-30.59,7
		c-39.29,0-71.18-31.85-71.18-71.18c0-39.29,31.89-71.18,71.18-71.18c22.32,0,42.26,10.27,55.3,26.38l34.66-34.66
		c-23.22-21.52-55.17-34.85-88.64-34.85c-65.45,0-118.53,51.28-118.53,114.54c0,63.23,53.08,114.5,118.53,114.5
		c42.61,0,82.75-21.81,105.58-54.47l-33.17-39.6C202.08,281.29,195.09,289.69,187.69,297.44z"/>
	<path class="st7" d="M294.3,262.67c-0.54-3.36-0.84-6.81-0.87-10.32c-0.03-0.19-0.03-0.39-0.03-0.58c0-4.35,0.42-8.63,1.22-12.75
		c-1.73,1.37-3.52,2.85-5.34,4.44c-1.83,1.59-3.69,3.28-5.57,5.08c-1.88,1.8-3.78,3.71-5.67,5.73c-1.38,1.47-2.75,3.03-4.12,4.62
		c-1.02,1.19-2.03,2.41-3.03,3.67c-1.32,1.66-2.64,3.35-3.92,5.12c-1.77,2.45-3.48,5.01-5.12,7.67c-1.64,2.67-3.2,5.44-4.67,8.32
		c-1.46,2.88-2.83,5.87-4.07,8.97l0,0h0c0.9,2.45,1.9,4.86,2.93,7.25c1.44,3.24,3.05,6.36,4.77,9.38
		C268.01,284.81,283.88,270.07,294.3,262.67z"/>
	<path class="st7" d="M257.18,283.67c-1.46,2.88-2.83,5.87-4.07,8.97l0,0C254.35,289.54,255.72,286.55,257.18,283.67z"/>
	<path class="st7" d="M278.04,254.27c-1.38,1.47-2.75,3.03-4.12,4.62C275.29,257.3,276.66,255.75,278.04,254.27z"/>
	<path class="st7" d="M289.28,243.46c1.83-1.59,3.62-3.07,5.34-4.44l0,0C292.9,240.39,291.11,241.87,289.28,243.46z"/>
	<path class="st7" d="M270.89,262.55c-1.32,1.66-2.64,3.35-3.92,5.12C268.25,265.9,269.57,264.21,270.89,262.55z"/>
	<path class="st7" d="M289.28,243.46c-1.83,1.59-3.69,3.28-5.57,5.08C285.59,246.74,287.46,245.04,289.28,243.46z"/>
	<path class="st7" d="M278.04,254.27c1.89-2.02,3.79-3.93,5.67-5.73C281.83,250.34,279.93,252.25,278.04,254.27z"/>
	<linearGradient id="SVGID_3_" gradientUnits="userSpaceOnUse" x1="381.7163" y1="395.3493" x2="333.339" y2="45.7586">
		<stop  offset="6.490977e-08" style="stop-color:#2D5BB0"/>
		<stop  offset="0.1554" style="stop-color:#2C5FB3"/>
		<stop  offset="0.3238" style="stop-color:#296CBB"/>
		<stop  offset="0.4982" style="stop-color:#2582CA"/>
		<stop  offset="0.6756" style="stop-color:#1FA0DD"/>
		<stop  offset="0.7639" style="stop-color:#1BB2E9"/>
	</linearGradient>
	<path class="st10" d="M364.16,133.5c-2.35,0-4.69,0.07-7.04,0.21c-0.32,0.02-0.65,0.04-0.97,0.06
		c-52.2,3.53-98.08,43.45-120.05,89.21c4.03-3.82,8-7.29,11.9-10.46c1.3-1.06,2.6-2.08,3.88-3.07c0.65-0.51,1.3-1,1.94-1.47
		c0.21-0.16,0.43-0.32,0.64-0.47c0.97-0.73,1.94-1.45,2.91-2.14c1.28-0.92,2.55-1.8,3.82-2.65c0.95-0.64,1.89-1.26,2.83-1.86
		c0.63-0.4,1.25-0.8,1.88-1.18c16.38-10.16,31.26-15.05,44.21-16.82c2.59-0.35,5.1-0.58,7.53-0.7c1.62-0.08,3.21-0.11,4.75-0.1
		c1.55,0.01,3.06,0.06,4.53,0.15c1.47,0.09,2.91,0.22,4.3,0.38c5.58,0.64,10.54,1.81,14.81,3.17c4.83-1.13,9.89-1.71,15.07-1.71
		c37.39,0,67.7,30.31,67.7,67.7s-30.31,67.7-67.7,67.7c-31.14,0-57.34-21.01-65.23-49.64c-0.64-2.34-1.18-4.73-1.57-7.16
		c-10.42,7.39-26.29,22.14-33.49,46.6c1.58,2.77,3.26,5.45,5.05,8.04c21.25,30.62,57.35,48.04,98.31,48.04
		c65.32,0,118.3-48.23,118.3-113.58C482.47,186.45,429.48,133.5,364.16,133.5z"/>
	<linearGradient id="SVGID_4_" gradientUnits="userSpaceOnUse" x1="-2.752" y1="201.802" x2="371.0103" y2="201.802">
		<stop  offset="6.490977e-08" style="stop-color:#34217D"/>
		<stop  offset="0.2682" style="stop-color:#34247F"/>
		<stop  offset="0.4316" style="stop-color:#322C85"/>
		<stop  offset="0.567" style="stop-color:#303A90"/>
		<stop  offset="0.6871" style="stop-color:#2C4F9F"/>
		<stop  offset="0.797" style="stop-color:#2869B3"/>
		<stop  offset="0.8985" style="stop-color:#2289CB"/>
		<stop  offset="0.9936" style="stop-color:#1BAFE7"/>
		<stop  offset="1" style="stop-color:#1BB2E9"/>
	</linearGradient>
	<path class="st12" d="M261.18,202.73c0.95-0.64,1.89-1.26,2.83-1.86C263.08,201.47,262.13,202.09,261.18,202.73z"/>
	<linearGradient id="SVGID_5_" gradientUnits="userSpaceOnUse" x1="291.1197" y1="407.8863" x2="242.7424" y2="58.2956">
		<stop  offset="6.490977e-08" style="stop-color:#2D5BB0"/>
		<stop  offset="0.1554" style="stop-color:#2C5FB3"/>
		<stop  offset="0.3238" style="stop-color:#296CBB"/>
		<stop  offset="0.4982" style="stop-color:#2582CA"/>
		<stop  offset="0.6756" style="stop-color:#1FA0DD"/>
		<stop  offset="0.7639" style="stop-color:#1BB2E9"/>
	</linearGradient>
	<path class="st13" d="M261.18,202.73c0.95-0.64,1.89-1.26,2.83-1.86C263.08,201.47,262.13,202.09,261.18,202.73z"/>
	<linearGradient id="SVGID_6_" gradientUnits="userSpaceOnUse" x1="-2.752" y1="210.2501" x2="371.0103" y2="210.2501">
		<stop  offset="6.490977e-08" style="stop-color:#34217D"/>
		<stop  offset="0.2682" style="stop-color:#34247F"/>
		<stop  offset="0.4316" style="stop-color:#322C85"/>
		<stop  offset="0.567" style="stop-color:#303A90"/>
		<stop  offset="0.6871" style="stop-color:#2C4F9F"/>
		<stop  offset="0.797" style="stop-color:#2869B3"/>
		<stop  offset="0.8985" style="stop-color:#2289CB"/>
		<stop  offset="0.9936" style="stop-color:#1BAFE7"/>
		<stop  offset="1" style="stop-color:#1BB2E9"/>
	</linearGradient>
	<path class="st14" d="M253.82,207.98c-0.64,0.47-1.29,0.96-1.94,1.47c-1.29,0.99-2.58,2.01-3.88,3.07c1.3-1.06,2.6-2.08,3.88-3.07
		C252.54,208.94,253.18,208.45,253.82,207.98z"/>
	<linearGradient id="SVGID_7_" gradientUnits="userSpaceOnUse" x1="278.5027" y1="409.6323" x2="230.1253" y2="60.0416">
		<stop  offset="6.490977e-08" style="stop-color:#2D5BB0"/>
		<stop  offset="0.1554" style="stop-color:#2C5FB3"/>
		<stop  offset="0.3238" style="stop-color:#296CBB"/>
		<stop  offset="0.4982" style="stop-color:#2582CA"/>
		<stop  offset="0.6756" style="stop-color:#1FA0DD"/>
		<stop  offset="0.7639" style="stop-color:#1BB2E9"/>
	</linearGradient>
	<path class="st15" d="M253.82,207.98c-0.64,0.47-1.29,0.96-1.94,1.47c-1.29,0.99-2.58,2.01-3.88,3.07c1.3-1.06,2.6-2.08,3.88-3.07
		C252.54,208.94,253.18,208.45,253.82,207.98z"/>
	<linearGradient id="SVGID_8_" gradientUnits="userSpaceOnUse" x1="-2.752" y1="182.1206" x2="371.0103" y2="182.1206">
		<stop  offset="6.490977e-08" style="stop-color:#34217D"/>
		<stop  offset="0.2682" style="stop-color:#34247F"/>
		<stop  offset="0.4316" style="stop-color:#322C85"/>
		<stop  offset="0.567" style="stop-color:#303A90"/>
		<stop  offset="0.6871" style="stop-color:#2C4F9F"/>
		<stop  offset="0.797" style="stop-color:#2869B3"/>
		<stop  offset="0.8985" style="stop-color:#2289CB"/>
		<stop  offset="0.9936" style="stop-color:#1BAFE7"/>
		<stop  offset="1" style="stop-color:#1BB2E9"/>
	</linearGradient>
	<path class="st16" d="M317.64,182.17c1.62-0.08,3.21-0.11,4.75-0.1C320.84,182.06,319.26,182.09,317.64,182.17z"/>
	<linearGradient id="SVGID_9_" gradientUnits="userSpaceOnUse" x1="350.1237" y1="399.7212" x2="301.7463" y2="50.1305">
		<stop  offset="6.490977e-08" style="stop-color:#2D5BB0"/>
		<stop  offset="0.1554" style="stop-color:#2C5FB3"/>
		<stop  offset="0.3238" style="stop-color:#296CBB"/>
		<stop  offset="0.4982" style="stop-color:#2582CA"/>
		<stop  offset="0.6756" style="stop-color:#1FA0DD"/>
		<stop  offset="0.7639" style="stop-color:#1BB2E9"/>
	</linearGradient>
	<path class="st17" d="M317.64,182.17c1.62-0.08,3.21-0.11,4.75-0.1C320.84,182.06,319.26,182.09,317.64,182.17z"/>
</g>
</svg>
