<?xml version="1.0" encoding="utf-8"?>
<!-- Generator: Adobe Illustrator 24.0.0, SVG Export Plug-In . SVG Version: 6.00 Build 0)  -->
<svg version="1.1" id="Layer_1" xmlns="http://www.w3.org/2000/svg" xmlns:xlink="http://www.w3.org/1999/xlink" x="0px" y="0px"
	 viewBox="0 0 847.84 167.09" style="enable-background:new 0 0 847.84 167.09;" xml:space="preserve">
<style type="text/css">
	.st0{fill:#331F7E;}
	.st1{fill:#FFFFFF;}
	.st2{fill:none;stroke:#331F7E;stroke-width:9;stroke-miterlimit:10;}
	.st3{fill:#2575BE;}
	.st4{fill:none;stroke:#2575BE;stroke-width:3;stroke-miterlimit:10;}
	.st5{fill:url(#SVGID_1_);}
	.st6{fill:#164589;}
	.st7{fill:#213A8A;}
	.st8{fill:url(#SVGID_2_);}
	.st9{fill:none;stroke:#FFFFFF;stroke-width:6;stroke-miterlimit:10;}
	.st10{fill:url(#SVGID_3_);}
	.st11{fill:none;}
	.st12{fill:url(#SVGID_4_);}
	.st13{fill:url(#SVGID_5_);}
	.st14{fill:url(#SVGID_6_);}
	.st15{fill:url(#SVGID_7_);}
	.st16{fill:url(#SVGID_8_);}
	.st17{fill:url(#SVGID_9_);}
	.st18{fill:url(#SVGID_10_);}
	.st19{fill:url(#SVGID_11_);}
	.st20{fill:url(#SVGID_12_);}
	.st21{fill:url(#SVGID_13_);}
	.st22{fill:url(#SVGID_14_);}
</style>
<g>
	<g>
		<g>
			<rect x="754.86" y="31.64" class="st1" width="21.95" height="21.95"/>
			<g>
				<rect x="738.8" y="16.42" class="st1" width="14.01" height="13.7"/>
			</g>
			<g>
				<rect x="754.87" y="4.25" class="st1" width="10.66" height="10.43"/>
			</g>
			<g>
				<rect x="729.61" y="7.32" class="st1" width="7.73" height="7.57"/>
			</g>
			<g>
				<rect x="738.54" class="st1" width="6.18" height="6.04"/>
			</g>
		</g>
	</g>
	<path class="st1" d="M396.07,94.8h-70.4c0,0,0,0,0,0v19.78c0,0,0,0,0,0l45.2,0c0,0,0,0,0,0c-1.68,9.07-5.53,16.42-11.46,21.83
		c-6.38,5.8-14.84,8.75-25.15,8.75c-7.67,0-14.59-1.77-20.56-5.27c-5.95-3.46-10.67-8.5-14.05-14.96c-3.4-6.48-5.1-14.1-5.1-22.62
		s1.7-16.1,5.1-22.53c3.36-6.41,8.1-11.41,14.05-14.89c5.97-3.48,12.89-5.25,20.56-5.25c6.98,0,13.2,1.5,18.51,4.48
		c5.24,2.93,9.4,7.37,12.35,13.16l0.49,0.98h27.63l-0.96-2.5c-4.65-12.12-12.26-21.62-22.6-28.26c-10.32-6.59-22.22-9.94-35.42-9.94
		c-11.55,0-22.31,2.8-32.02,8.3c-9.71,5.5-17.52,13.28-23.18,23.1c-5.66,9.8-8.53,21.03-8.53,33.35c0,12.32,2.86,23.55,8.53,33.35
		c5.66,9.82,13.43,17.6,23.09,23.1c9.64,5.5,20.45,8.3,32.11,8.3c10.83,0,20.83-2.48,29.74-7.39c8.88-4.91,16.18-11.57,21.73-19.8
		c5.55-8.23,9.02-17.39,10.34-27.21c0,0,0,0,0-0.01V94.8z"/>
	<polygon class="st1" points="514.44,38.99 490.78,38.99 490.78,38.99 490.78,127.21 490.78,127.21 433.29,38.99 410.48,38.99 
		410.48,38.99 410.48,166.92 410.48,166.92 434.12,166.92 434.12,78.55 491.07,166.09 491.61,166.92 514.44,166.92 	"/>
	<polygon class="st1" points="608.25,38.99 537.17,38.99 537.17,166.92 537.17,166.92 608.25,166.92 608.25,146.65 560.81,146.65 
		560.81,146.65 560.81,112.31 602.98,112.31 602.98,112.31 602.98,92.02 560.81,92.02 560.81,92.02 560.81,59.28 608.25,59.28 	"/>
	<path class="st1" d="M690.93,114.83C690.93,114.83,690.93,114.82,690.93,114.83c8.83-2.64,15.55-7.17,20.03-13.58
		c4.82-6.89,7.28-14.65,7.28-23.1c0-7.19-1.71-13.83-5.07-19.67c-3.4-5.88-8.56-10.62-15.35-14.1c-6.72-3.46-15.01-5.2-24.61-5.2
		h-43.99c0,0,0,0,0,0v127.74c0,0,0,0,0,0h23.66V117.3c0,0,0,0,0,0h12.42c0,0,0,0,0,0l28.12,49.62h28.12L690.93,114.83z
		 M673.22,97.38h-20.33c0,0,0,0,0,0V59.46h20.33c7.08,0,12.39,1.65,15.8,4.92c3.4,3.3,5.05,7.81,5.05,13.76
		c0,5.98-1.69,10.56-5.16,14.04C685.45,95.64,680.18,97.38,673.22,97.38z"/>
	<g>
		<g>
			<g>
				<path class="st1" d="M802.22,34.89h-22.78v20.89h-10.24L730.8,167.09h24.53l8.96-26.34h49.91l8.95,26.34h24.71L802.22,34.89z
					 M771.05,120.43l18.27-53.66l18.12,53.66H771.05z"/>
			</g>
		</g>
	</g>
	<path class="st1" d="M192.78,36.68c-1.31,0-2.61,0.04-3.91,0.12c-0.18,0.01-0.36,0.02-0.54,0.03
		c-29.03,1.96-54.55,24.16-66.77,49.61c2.99-2.83,5.91-5.32,8.78-7.52c0.48-0.38,0.97-0.75,1.43-1.07c2.17-1.63,4.28-3.08,6.36-4.35
		c19.44-12.06,35.07-10.77,44.57-7.74c2.69-0.63,5.5-0.95,8.38-0.95c20.8,0,37.65,16.86,37.65,37.65s-16.86,37.65-37.65,37.65
		c-17.32,0-31.89-11.69-36.28-27.61c-0.36-1.3-0.66-2.63-0.87-3.98c-5.79,4.11-14.62,12.31-18.63,25.92
		c0.88,1.54,1.81,3.03,2.81,4.47c11.82,17.03,31.9,26.72,54.67,26.72c36.33,0,65.79-26.82,65.79-63.17
		C258.57,66.13,229.11,36.68,192.78,36.68z"/>
	<path class="st1" d="M135.88,115.57c0.59-0.97,1.21-1.9,1.84-2.82C137.09,113.67,136.47,114.6,135.88,115.57z"/>
	<path class="st1" d="M141.45,107.77c0.18-0.21,0.35-0.43,0.53-0.64C141.8,107.34,141.63,107.56,141.45,107.77z"/>
	<path class="st1" d="M94.63,127.86c-3.65,3.83-7.51,8.27-12.43,10.29c-5.53,2.27-10.96,3.89-17.01,3.89
		c-21.85,0-39.59-17.72-39.59-39.59c0-21.85,17.73-39.59,39.59-39.59c12.41,0,23.5,5.71,30.76,14.67l19.27-19.27
		C102.3,46.3,84.53,38.88,65.92,38.88C29.52,38.88,0,67.4,0,102.58c0,35.16,29.52,63.68,65.92,63.68c23.7,0,46.02-12.13,58.72-30.29
		l-18.44-22.02C102.63,118.87,98.75,123.54,94.63,127.86z"/>
	<path class="st1" d="M138.13,73.49c-2.08,1.27-4.19,2.72-6.36,4.35c-0.47,0.32-0.95,0.7-1.43,1.07c-2.87,2.2-5.79,4.69-8.78,7.52
		c-0.54,1.11-1.06,2.26-1.59,3.44c-0.45,1.02-1.02,2.26-1.72,3.69c-2.44,5.21-5.31,10.31-8.51,15.22L128,130.6
		c1.06-1.89,2.02-3.82,2.87-5.81c0.05,0.13,0.09,0.27,0.14,0.39c1.38-3.45,3.04-6.65,4.86-9.62c0.59-0.97,1.21-1.9,1.84-2.82
		c1.2-1.75,2.45-3.42,3.73-4.98c0.18-0.21,0.35-0.43,0.53-0.64c0.96-1.14,1.93-2.24,2.9-3.28c3.15-3.37,6.34-6.19,9.22-8.48v0l0,0
		c1.02-5.43,3.21-10.43,6.32-14.74c5.25-7.4,13.13-12.81,22.27-14.87C173.2,62.72,157.56,61.43,138.13,73.49z"/>
	<path class="st1" d="M144.88,103.85c-0.97,1.04-1.95,2.14-2.9,3.28c-0.18,0.21-0.35,0.43-0.53,0.64c-1.28,1.57-2.53,3.23-3.73,4.98
		c-0.63,0.92-1.25,1.85-1.84,2.82c-1.82,2.97-3.48,6.17-4.86,9.62v0v0c0.5,1.36,1.06,2.7,1.63,4.03c0.8,1.8,1.69,3.54,2.65,5.22
		c4.01-13.61,12.84-21.8,18.63-25.92c-0.3-1.87-0.47-3.79-0.48-5.74c-0.02-0.11-0.02-0.22-0.02-0.32c0-2.42,0.23-4.8,0.68-7.09
		C151.22,97.65,148.03,100.48,144.88,103.85z"/>
	<path class="st1" d="M137.72,112.75c1.2-1.75,2.45-3.42,3.73-4.98C140.17,109.34,138.92,111,137.72,112.75z"/>
	<path class="st1" d="M144.88,103.85c3.15-3.37,6.34-6.19,9.22-8.48v0C151.22,97.65,148.03,100.48,144.88,103.85z"/>
	<path class="st1" d="M135.88,115.57c-1.82,2.97-3.48,6.17-4.86,9.62v0C132.4,121.74,134.05,118.53,135.88,115.57z"/>
	<path class="st1" d="M141.98,107.13c0.96-1.14,1.93-2.24,2.9-3.28C143.91,104.89,142.94,105.99,141.98,107.13z"/>
</g>
</svg>
